<svg id="Layer_1" data-name="Layer 1" xmlns="http://www.w3.org/2000/svg" viewBox="0 0 222.04 226.98"><defs><style>.cls-1{fill:#fff;}</style></defs><title>magnify_white</title><path class="cls-1" d="M193,227c-8.18-1.72-14.09-6.91-19.75-12.65-12.39-12.57-25-25-37.33-37.56-2.31-2.35-4.06-2.9-7.25-1.49-55,24.39-117.5-9.52-127.48-69C-7.06,56.75,27.4,9.14,77.3,1.14,127.75-6.94,175.83,28.87,182.23,79c2.46,19.31-.24,38.9-12.09,60.35,8,8,16.15,16.07,24.27,24.16,5,4.94,9.81,10,14.86,14.82,5.82,5.57,11,11.49,12.78,19.65v8c-2.85,11.15-10,18-21,21h-8ZM91.2,147.3a57.1,57.1,0,0,0,57.19-57.52c-0.14-31.92-25.54-57-57.63-56.93A57.22,57.22,0,0,0,91.2,147.3Z"/></svg>