<svg id="Layer_1" data-name="Layer 1" xmlns="http://www.w3.org/2000/svg" xmlns:xlink="http://www.w3.org/1999/xlink" viewBox="0 0 375.6 38.65"><defs><style>.cls-1{fill:none;}.cls-2{clip-path:url(#clip-path);}.cls-3{fill:#ff8300;}.cls-4{fill:#55565a;}</style><clipPath id="clip-path"><rect class="cls-1" width="375.6" height="38.65"/></clipPath></defs><title>wireframe_responsive_library_1920px</title><g class="cls-2"><path class="cls-3" d="M21.62,16.34l13.47,2.15-17.54-5a5,5,0,0,1-4.4,2.24l-6.09,17,6.21-12.14L11.7,35.21,15,20.85,17,37.46,16.67,20.69l7.41,18L18.28,20.11,29,34.24,19.71,19.15l12.14,9.8-11-11.08L33.35,23.3Z"/><path class="cls-4" d="M29.37,5.71L11.72,0.23H11.64A5,5,0,0,0,5.51,3.46h0L0,21.19l5.84,11.9L11.52,14.8a4.94,4.94,0,0,1,6.16-3.18h0l18.19,5.65Z"/><path class="cls-4" d="M50.24,25.88l-3,6.5H43.8l12.38-27,12.38,27H65.1l-3-6.5H50.24Zm6-13.45L51.58,22.92H60.8Z"/><path class="cls-4" d="M72.15,6.44V21.75c0,4.23,1.27,8.15,6.26,8.15s6.26-3.92,6.26-8.15V6.44H87.9V22.85c0,5.71-3.54,10.08-9.49,10.08s-9.49-4.37-9.49-10.08V6.44h3.23Z"/><path class="cls-4" d="M102.52,11.36a4.44,4.44,0,0,0-4.16-2.44C96.3,8.92,94,10.33,94,12.6c0,2,2,3.1,3.61,3.72L99.49,17c3.68,1.45,6.43,3.47,6.43,7.81a8,8,0,0,1-8.29,8.08,8.08,8.08,0,0,1-8-7.26L92.89,25a4.9,4.9,0,1,0,9.8-.14c0-2.79-2.24-4-4.47-4.92l-1.79-.76c-3-1.27-5.64-3-5.64-6.57,0-4.2,3.71-6.71,7.64-6.71a7.4,7.4,0,0,1,6.67,3.92Z"/><polygon class="cls-4" points="115.08 32.38 111.84 32.38 111.84 9.4 105.69 9.4 105.69 6.44 121.23 6.44 121.23 9.4 115.08 9.4 115.08 32.38"/><rect class="cls-4" x="122.3" y="6.44" width="3.23" height="25.94"/><polygon class="cls-4" points="128.7 5.2 148.17 25.6 148.17 6.44 151.4 6.44 151.4 33.44 131.93 13.04 131.93 32.38 128.7 32.38 128.7 5.2"/><path class="cls-4" d="M166.43,32.38H163.2V6.44h3.71c8,0,10.46,2.75,10.46,7.5,0,5.47-4.16,7.57-9.08,7.57h-1.86V32.38Zm0-13.76h1c3.3,0,6.88-.62,6.88-4.75s-3.85-4.54-7.05-4.54h-0.86v9.29Z"/><path class="cls-4" d="M181.64,6.44V21.75c0,4.23,1.27,8.15,6.26,8.15s6.26-3.92,6.26-8.15V6.44h3.23V22.85c0,5.71-3.54,10.08-9.49,10.08s-9.49-4.37-9.49-10.08V6.44h3.23Z"/><path class="cls-4" d="M200.21,6.44h3.16c4.88,0,9.49,1.27,9.49,7.12a5.57,5.57,0,0,1-2.79,4.92v0.07a6.68,6.68,0,0,1,5.19,6.57c0,5.19-4.44,7.26-9,7.26h-6.05V6.44Zm3.23,11.49h0.83c3.06,0,5.57-.62,5.57-4.33s-2.48-4.27-5.5-4.27h-0.89v8.6Zm0,11.56h2.48c3,0,6.12-.89,6.12-4.57s-3.72-4.4-6.6-4.4h-2v9Z"/><polygon class="cls-4" points="220.75 29.42 228.62 29.42 228.62 32.38 217.51 32.38 217.51 6.44 220.75 6.44 220.75 29.42"/><rect class="cls-4" x="229.28" y="6.44" width="3.23" height="25.94"/><path class="cls-4" d="M254.87,11.39a10.31,10.31,0,0,0-17.1,8,10.2,10.2,0,0,0,17.1,7.84V31.1a14,14,0,0,1-6.81,1.82,13.43,13.43,0,0,1-13.52-13.38A13.63,13.63,0,0,1,248.33,5.89a12.52,12.52,0,0,1,6.54,1.75v3.75Z"/><polygon class="cls-4" points="269.14 29.42 277.02 29.42 277.02 32.38 265.91 32.38 265.91 6.44 269.14 6.44 269.14 29.42"/><rect class="cls-4" x="277.67" y="6.44" width="3.23" height="25.94"/><path class="cls-4" d="M284.11,6.44h3.16c4.88,0,9.49,1.27,9.49,7.12A5.58,5.58,0,0,1,294,18.48v0.07a6.68,6.68,0,0,1,5.19,6.57c0,5.19-4.44,7.26-9,7.26h-6.05V6.44Zm3.23,11.49h0.83c3.06,0,5.57-.62,5.57-4.33s-2.48-4.27-5.5-4.27h-0.89v8.6Zm0,11.56h2.48c3,0,6.12-.89,6.12-4.57s-3.72-4.4-6.6-4.4h-2v9Z"/><path class="cls-4" d="M317.54,32.38h-3.92L306,21.4h-1.34v11h-3.23V6.44h3.92c2.3,0,4.78,0,6.85,1.2a7.18,7.18,0,0,1,3.4,6.19,7.06,7.06,0,0,1-6.23,7.26Zm-12.9-13.66h1c3.3,0,6.88-.62,6.88-4.75s-3.85-4.64-7.05-4.64h-0.86v9.39Z"/><path class="cls-4" d="M322.39,25.88l-3,6.5H316l12.38-27,12.38,27h-3.47l-3-6.5h-11.9Zm6-13.45-4.61,10.49H333Z"/><path class="cls-4" d="M357.65,32.38h-3.92l-7.64-11h-1.34v11h-3.23V6.44h3.92c2.3,0,4.78,0,6.84,1.2a7.18,7.18,0,0,1,3.41,6.19,7.06,7.06,0,0,1-6.23,7.26Zm-12.9-13.66h1c3.3,0,6.88-.62,6.88-4.75s-3.85-4.64-7.05-4.64h-0.86v9.39Z"/><polygon class="cls-4" points="355.45 6.44 359.16 6.44 365.53 17.52 371.89 6.44 375.61 6.44 367.14 21.09 367.14 32.38 363.91 32.38 363.91 21.09 355.45 6.44"/></g></svg>